PathFileType	4	(X/Y/Z)	C:\Users\italobelli\Desktop\GitHub\PTbot_officialCBL\Personal_Results\ABD22_noisy1.trc
DataRate	CameraRate	NumFrames	NumMarkers	Units	OrigDataRate	OrigDataStartFrame	OrigNumFrames
106.125000	106.125000	21	9	m	106.125000	107	850
Frame#	Time		gu		centelbow		EpL		centpxt8		centijc7		ij		ts		aa		ai
			X1	Y1	Z1	X2	Y2	Z2	X3	Y3	Z3	X4	Y4	Z4	X5	Y5	Z5	X6	Y6	Z6	X7	Y7	Z7	X8	Y8	Z8	X9	Y9	Z9

107	0.99882	-0.096188	-0.012547	0.15583	-0.1367	-0.25486	0.19097	-0.14508	-0.24524	0.22057	-0.046816	-0.15316	-0.008669	-0.046816	0.031938	-0.008669	0	0	0	-0.13	0.025916	0.036539	-0.12734	0.021097	0.15568	-0.14409	-0.086716	0.037514
108	1.0082	-0.096213	-0.012429	0.15572	-0.13664	-0.25483	0.19125	-0.14506	-0.24516	0.22083	-0.046816	-0.15316	-0.008669	-0.046816	0.031938	-0.008669	0	0	0	-0.12999	0.025917	0.036427	-0.12737	0.021155	0.15556	-0.14407	-0.086726	0.037482
109	1.0177	-0.096236	-0.012291	0.1556	-0.13657	-0.25474	0.19164	-0.14503	-0.24503	0.22117	-0.046816	-0.15316	-0.008669	-0.046816	0.031938	-0.008669	0	0	0	-0.12997	0.025911	0.036304	-0.1274	0.021235	0.15543	-0.14403	-0.086741	0.037464
110	1.0271	-0.096259	-0.012134	0.15548	-0.13649	-0.2546	0.19212	-0.14499	-0.24483	0.2216	-0.046816	-0.15316	-0.008669	-0.046816	0.031938	-0.008669	0	0	0	-0.12993	0.0259	0.036168	-0.12744	0.021338	0.15529	-0.14396	-0.086761	0.03746
111	1.0365	-0.09628	-0.011957	0.15536	-0.13639	-0.25441	0.1927	-0.14495	-0.24456	0.22212	-0.046816	-0.15316	-0.008669	-0.046816	0.031938	-0.008669	0	0	0	-0.12989	0.025882	0.036021	-0.12747	0.021461	0.15514	-0.14388	-0.086787	0.03747
112	1.0459	-0.0963	-0.011761	0.15523	-0.13628	-0.25416	0.19336	-0.1449	-0.24424	0.22272	-0.046816	-0.15316	-0.008669	-0.046816	0.031938	-0.008669	0	0	0	-0.12984	0.025857	0.035864	-0.12751	0.021604	0.15498	-0.14379	-0.086817	0.037493
113	1.0554	-0.096319	-0.011547	0.15511	-0.13616	-0.25386	0.19412	-0.14484	-0.24385	0.22341	-0.046816	-0.15316	-0.008669	-0.046816	0.031938	-0.008669	0	0	0	-0.12977	0.025827	0.035696	-0.12754	0.021768	0.15481	-0.14367	-0.086853	0.03753
114	1.0648	-0.096337	-0.011316	0.15497	-0.13603	-0.25352	0.19496	-0.14478	-0.2434	0.22417	-0.046816	-0.15316	-0.008669	-0.046816	0.031938	-0.008669	0	0	0	-0.1297	0.025791	0.035519	-0.12757	0.02195	0.15464	-0.14354	-0.086893	0.03758
115	1.0742	-0.096353	-0.011067	0.15484	-0.13588	-0.25312	0.19588	-0.14471	-0.2429	0.225	-0.046816	-0.15316	-0.008669	-0.046816	0.031938	-0.008669	0	0	0	-0.12963	0.02575	0.035332	-0.12761	0.022151	0.15445	-0.14339	-0.086938	0.037642
116	1.0836	-0.096368	-0.010802	0.15471	-0.13572	-0.25267	0.19688	-0.14464	-0.24234	0.22591	-0.046816	-0.15316	-0.008669	-0.046816	0.031938	-0.008669	0	0	0	-0.12954	0.025702	0.035137	-0.12764	0.02237	0.15426	-0.14323	-0.086987	0.037717
117	1.0931	-0.096382	-0.01052	0.15457	-0.13555	-0.25218	0.19796	-0.14456	-0.24172	0.2269	-0.046816	-0.15316	-0.008669	-0.046816	0.031938	-0.008669	0	0	0	-0.12945	0.025649	0.034934	-0.12767	0.022606	0.15406	-0.14305	-0.08704	0.037804
118	1.1025	-0.096395	-0.010223	0.15443	-0.13537	-0.25164	0.19912	-0.14447	-0.24105	0.22794	-0.046816	-0.15316	-0.008669	-0.046816	0.031938	-0.008669	0	0	0	-0.12935	0.025591	0.034723	-0.1277	0.022859	0.15385	-0.14286	-0.087097	0.037903
119	1.1119	-0.096406	-0.0099112	0.15429	-0.13518	-0.25106	0.20034	-0.14438	-0.24033	0.22906	-0.046816	-0.15316	-0.008669	-0.046816	0.031938	-0.008669	0	0	0	-0.12924	0.025528	0.034506	-0.12773	0.023127	0.15364	-0.14266	-0.087158	0.038014
120	1.1213	-0.096417	-0.0095847	0.15414	-0.13499	-0.25043	0.20164	-0.14429	-0.23956	0.23023	-0.046816	-0.15316	-0.008669	-0.046816	0.031938	-0.008669	0	0	0	-0.12912	0.025459	0.034281	-0.12777	0.023411	0.15342	-0.14244	-0.087222	0.038136
121	1.1307	-0.096426	-0.0092442	0.154	-0.13478	-0.24976	0.203	-0.14419	-0.23874	0.23147	-0.046816	-0.15316	-0.008669	-0.046816	0.031938	-0.008669	0	0	0	-0.12901	0.025386	0.034051	-0.1278	0.023709	0.1532	-0.14221	-0.08729	0.038269
122	1.1402	-0.096434	-0.0088903	0.15385	-0.13456	-0.24905	0.20442	-0.14409	-0.23786	0.23276	-0.046816	-0.15316	-0.008669	-0.046816	0.031938	-0.008669	0	0	0	-0.12888	0.025308	0.033815	-0.12783	0.024021	0.15297	-0.14197	-0.087361	0.038413
123	1.1496	-0.096441	-0.0085235	0.1537	-0.13434	-0.2483	0.2059	-0.14398	-0.23695	0.2341	-0.046816	-0.15316	-0.008669	-0.046816	0.031938	-0.008669	0	0	0	-0.12875	0.025225	0.033574	-0.12786	0.024347	0.15273	-0.14172	-0.087435	0.038568
124	1.159	-0.096446	-0.0081443	0.15355	-0.13411	-0.24751	0.20744	-0.14387	-0.23598	0.2355	-0.046816	-0.15316	-0.008669	-0.046816	0.031938	-0.008669	0	0	0	-0.12862	0.025137	0.033328	-0.12789	0.024685	0.15249	-0.14146	-0.087513	0.038733
125	1.1684	-0.096451	-0.0077533	0.1534	-0.13387	-0.24669	0.20903	-0.14375	-0.23497	0.23695	-0.046816	-0.15316	-0.008669	-0.046816	0.031938	-0.008669	0	0	0	-0.12848	0.025046	0.033078	-0.12792	0.025035	0.15225	-0.1412	-0.087593	0.038908
126	1.1779	-0.096454	-0.007351	0.15325	-0.13362	-0.24582	0.21068	-0.14364	-0.23392	0.23844	-0.046816	-0.15316	-0.008669	-0.046816	0.031938	-0.008669	0	0	0	-0.12834	0.024949	0.032825	-0.12795	0.025396	0.152	-0.14092	-0.087675	0.039093
127	1.1873	-0.096456	-0.0069379	0.15309	-0.13337	-0.24492	0.21237	-0.14351	-0.23282	0.23997	-0.046816	-0.15316	-0.008669	-0.046816	0.031938	-0.008669	0	0	0	-0.12819	0.024849	0.032569	-0.12798	0.025768	0.15174	-0.14064	-0.08776	0.039288
